{
 "cells": [
  {
   "cell_type": "code",
   "execution_count": 1,
   "id": "cbf0e588",
   "metadata": {},
   "outputs": [],
   "source": [
    "import ffmpeg #sudo apt-get install ffmpeg\n",
    "import re\n",
    "import os"
   ]
  },
  {
   "cell_type": "code",
   "execution_count": 2,
   "id": "f906a29a",
   "metadata": {},
   "outputs": [
    {
     "name": "stdout",
     "output_type": "stream",
     "text": [
      " \u001b[0m\u001b[01;34mbangla-quran-with-tafsir\u001b[0m/\r\n",
      " \u001b[01;34mbangla_tts\u001b[0m/\r\n",
      " \u001b[01;34mbaqara\u001b[0m/\r\n",
      " \u001b[01;34mbukhari-hadis_audiobook\u001b[0m/\r\n",
      " \u001b[00;36mempty_chunk.wav\u001b[0m\r\n",
      " \u001b[00;36mempty.wav\u001b[0m\r\n",
      " en_bn_seerah.csv\r\n",
      " ffmpeg_based_audio_to_video_maker.ipynb\r\n",
      " ibn_kathir_baqarah.ipynb\r\n",
      " \u001b[01;34mihadis_audios\u001b[0m/\r\n",
      " ihadis-reader.ipynb\r\n",
      " \u001b[01;34mihadis_videobook\u001b[0m/\r\n",
      " \u001b[01;34mihadith\u001b[0m/\r\n",
      " \u001b[01;34mklaam\u001b[0m/\r\n",
      " \u001b[01;35mlogoCombined2.png\u001b[0m\r\n",
      " mlt_tts.py\r\n",
      " \u001b[01;31mmodel.pth.tar\u001b[0m\r\n",
      " multilingual_tts.py\r\n",
      " \u001b[01;34m__pycache__\u001b[0m/\r\n",
      " \u001b[01;34mqtafsir\u001b[0m/\r\n",
      " \u001b[00;36msample.wav\u001b[0m\r\n",
      " \u001b[01;34mtafsir_ibn_kaseer\u001b[0m/\r\n",
      " tafsir-ibn-kathir-reader.ipynb\r\n",
      " tafsir-zakaria-reader.ipynb\r\n",
      " \u001b[01;34mtafsir_zakariya\u001b[0m/\r\n",
      " \u001b[01;34mtranslated_bangla_seerah\u001b[0m/\r\n",
      "'Translated Bangla Seerah Reader.ipynb'\r\n",
      " \u001b[01;34mvideobook_translated_bangla_seerah\u001b[0m/\r\n",
      "\u001b[01;34m'তাফসীরে জাকারিয়া (Tafsir Abu Bakar Zakaria)'\u001b[0m/\r\n"
     ]
    }
   ],
   "source": [
    "ls"
   ]
  },
  {
   "cell_type": "code",
   "execution_count": 3,
   "id": "d9638aec",
   "metadata": {},
   "outputs": [
    {
     "name": "stdout",
     "output_type": "stream",
     "text": [
      "/home/ansary/Shabab/book_readers/translated_bangla_seerah\n"
     ]
    },
    {
     "data": {
      "text/plain": [
       "'001_-_Specialties_of_Prophet_Muhammad_SAW.wav'"
      ]
     },
     "execution_count": 3,
     "metadata": {},
     "output_type": "execute_result"
    }
   ],
   "source": [
    "folder_path = os.path.join(os.getcwd() , 'translated_bangla_seerah') \n",
    "print(folder_path)\n",
    "files = sorted(os.listdir(folder_path))\n",
    "files[0]"
   ]
  },
  {
   "cell_type": "code",
   "execution_count": 4,
   "id": "21006e0f",
   "metadata": {},
   "outputs": [
    {
     "data": {
      "text/plain": [
       "'001_-_Specialties_of_Prophet_Muhammad_SAW'"
      ]
     },
     "execution_count": 4,
     "metadata": {},
     "output_type": "execute_result"
    }
   ],
   "source": [
    "head, output = os.path.split(files[0])\n",
    "fname = output.split(\".\")[0]\n",
    "fname"
   ]
  },
  {
   "cell_type": "code",
   "execution_count": null,
   "id": "fa7a3fad",
   "metadata": {},
   "outputs": [
    {
     "name": "stdout",
     "output_type": "stream",
     "text": [
      "working on  /home/ansary/Shabab/book_readers/translated_bangla_seerah/009_-_Marriage_to_Khadija___Re-building_Kaaba.wav\n"
     ]
    },
    {
     "name": "stderr",
     "output_type": "stream",
     "text": [
      "ffmpeg version 4.2.7-0ubuntu0.1 Copyright (c) 2000-2022 the FFmpeg developers\n",
      "  built with gcc 9 (Ubuntu 9.4.0-1ubuntu1~20.04.1)\n",
      "  configuration: --prefix=/usr --extra-version=0ubuntu0.1 --toolchain=hardened --libdir=/usr/lib/x86_64-linux-gnu --incdir=/usr/include/x86_64-linux-gnu --arch=amd64 --enable-gpl --disable-stripping --enable-avresample --disable-filter=resample --enable-avisynth --enable-gnutls --enable-ladspa --enable-libaom --enable-libass --enable-libbluray --enable-libbs2b --enable-libcaca --enable-libcdio --enable-libcodec2 --enable-libflite --enable-libfontconfig --enable-libfreetype --enable-libfribidi --enable-libgme --enable-libgsm --enable-libjack --enable-libmp3lame --enable-libmysofa --enable-libopenjpeg --enable-libopenmpt --enable-libopus --enable-libpulse --enable-librsvg --enable-librubberband --enable-libshine --enable-libsnappy --enable-libsoxr --enable-libspeex --enable-libssh --enable-libtheora --enable-libtwolame --enable-libvidstab --enable-libvorbis --enable-libvpx --enable-libwavpack --enable-libwebp --enable-libx265 --enable-libxml2 --enable-libxvid --enable-libzmq --enable-libzvbi --enable-lv2 --enable-omx --enable-openal --enable-opencl --enable-opengl --enable-sdl2 --enable-libdc1394 --enable-libdrm --enable-libiec61883 --enable-nvenc --enable-chromaprint --enable-frei0r --enable-libx264 --enable-shared\n",
      "  libavutil      56. 31.100 / 56. 31.100\n",
      "  libavcodec     58. 54.100 / 58. 54.100\n",
      "  libavformat    58. 29.100 / 58. 29.100\n",
      "  libavdevice    58.  8.100 / 58.  8.100\n",
      "  libavfilter     7. 57.100 /  7. 57.100\n",
      "  libavresample   4.  0.  0 /  4.  0.  0\n",
      "  libswscale      5.  5.100 /  5.  5.100\n",
      "  libswresample   3.  5.100 /  3.  5.100\n",
      "  libpostproc    55.  5.100 / 55.  5.100\n",
      "Input #0, png_pipe, from './logoCombined2.png':\n",
      "  Duration: N/A, bitrate: N/A\n",
      "    Stream #0:0: Video: png, rgb24(pc), 960x540, 25 fps, 25 tbr, 25 tbn, 25 tbc\n",
      "Guessed Channel Layout for Input Stream #1.0 : mono\n",
      "Input #1, wav, from '/home/ansary/Shabab/book_readers/translated_bangla_seerah/009_-_Marriage_to_Khadija___Re-building_Kaaba.wav':\n",
      "  Duration: 00:41:26.98, bitrate: 352 kb/s\n",
      "    Stream #1:0: Audio: pcm_s16le ([1][0][0][0] / 0x0001), 22050 Hz, mono, s16, 352 kb/s\n",
      "Stream mapping:\n",
      "  Stream #0:0 -> #0:0 (png (native) -> h264 (libx264))\n",
      "  Stream #1:0 -> #0:1 (pcm_s16le (native) -> aac (native))\n",
      "Press [q] to stop, [?] for help\n",
      "[libx264 @ 0x55d8985f5980] using cpu capabilities: MMX2 SSE2Fast SSSE3 SSE4.2 AVX FMA3 BMI2 AVX2 AVX512\n",
      "[libx264 @ 0x55d8985f5980] profile High, level 3.1\n",
      "[libx264 @ 0x55d8985f5980] 264 - core 155 r2917 0a84d98 - H.264/MPEG-4 AVC codec - Copyleft 2003-2018 - http://www.videolan.org/x264.html - options: cabac=1 ref=3 deblock=1:-3:-3 analyse=0x3:0x113 me=hex subme=7 psy=1 psy_rd=2.00:0.70 mixed_ref=1 me_range=16 chroma_me=1 trellis=1 8x8dct=1 cqm=0 deadzone=21,11 fast_pskip=1 chroma_qp_offset=-4 threads=17 lookahead_threads=2 sliced_threads=0 nr=0 decimate=1 interlaced=0 bluray_compat=0 constrained_intra=0 bframes=3 b_pyramid=2 b_adapt=1 b_bias=0 direct=1 weightb=1 open_gop=0 weightp=2 keyint=250 keyint_min=25 scenecut=40 intra_refresh=0 rc_lookahead=40 rc=crf mbtree=1 crf=23.0 qcomp=0.60 qpmin=0 qpmax=69 qpstep=4 ip_ratio=1.40 aq=1:1.20\n",
      "[aac @ 0x55d8985f6b80] Too many bits 8916.462585 > 6144 per frame requested, clamping to max\n",
      "Output #0, mp4, to './videobook_translated_bangla_seerah/009_-_Marriage_to_Khadija___Re-building_Kaaba.mp4':\n",
      "  Metadata:\n",
      "    encoder         : Lavf58.29.100\n",
      "    Stream #0:0: Video: h264 (libx264) (avc1 / 0x31637661), yuv420p(progressive), 960x540, q=-1--1, 25 fps, 12800 tbn, 25 tbc\n",
      "    Metadata:\n",
      "      encoder         : Lavc58.54.100 libx264\n",
      "    Side data:\n",
      "      cpb: bitrate max/min/avg: 0/0/0 buffer size: 0 vbv_delay: -1\n",
      "    Stream #0:1: Audio: aac (LC) (mp4a / 0x6134706D), 22050 Hz, mono, fltp, 132 kb/s\n",
      "    Metadata:\n",
      "      encoder         : Lavc58.54.100 aac\n",
      "frame=62236 fps=231 q=-1.0 Lsize=   46470kB time=00:41:29.32 bitrate= 152.9kbits/s speed=9.24x    \n",
      "video:11973kB audio:32938kB subtitle:0kB other streams:0kB global headers:0kB muxing overhead: 3.472175%\n",
      "[libx264 @ 0x55d8985f5980] frame I:249   Avg QP: 8.72  size: 40851\n",
      "[libx264 @ 0x55d8985f5980] frame P:15683 Avg QP: 6.38  size:    43\n",
      "[libx264 @ 0x55d8985f5980] frame B:46304 Avg QP: 9.68  size:    30\n",
      "[libx264 @ 0x55d8985f5980] consecutive B-frames:  0.8%  0.0%  0.0% 99.2%\n",
      "[libx264 @ 0x55d8985f5980] mb I  I16..4: 65.8% 10.3% 23.9%\n",
      "[libx264 @ 0x55d8985f5980] mb P  I16..4:  0.0%  0.0%  0.0%  P16..4:  0.0%  0.0%  0.0%  0.0%  0.0%    skip:99.9%\n",
      "[libx264 @ 0x55d8985f5980] mb B  I16..4:  0.0%  0.0%  0.0%  B16..8:  0.1%  0.0%  0.0%  direct: 0.0%  skip:99.9%  L0:48.0% L1:52.0% BI: 0.0%\n",
      "[libx264 @ 0x55d8985f5980] 8x8 transform intra:10.3% inter:78.1%\n",
      "[libx264 @ 0x55d8985f5980] coded y,uvDC,uvAC intra: 30.6% 33.3% 31.8% inter: 0.0% 0.0% 0.0%\n",
      "[libx264 @ 0x55d8985f5980] i16 v,h,dc,p: 89%  3%  5%  3%\n",
      "[libx264 @ 0x55d8985f5980] i8 v,h,dc,ddl,ddr,vr,hd,vl,hu: 14% 11%  4% 29%  5%  7%  6% 15% 10%\n",
      "[libx264 @ 0x55d8985f5980] i4 v,h,dc,ddl,ddr,vr,hd,vl,hu: 21% 24% 10% 10%  7%  7%  7%  8%  6%\n",
      "[libx264 @ 0x55d8985f5980] i8c dc,h,v,p: 75% 10%  8%  7%\n",
      "[libx264 @ 0x55d8985f5980] Weighted P-Frames: Y:0.0% UV:0.0%\n",
      "[libx264 @ 0x55d8985f5980] ref P L0: 88.4%  0.9%  9.6%  1.2%\n",
      "[libx264 @ 0x55d8985f5980] ref B L0: 21.7% 78.0%  0.3%\n",
      "[libx264 @ 0x55d8985f5980] ref B L1: 99.5%  0.5%\n",
      "[libx264 @ 0x55d8985f5980] kb/s:39.40\n",
      "[aac @ 0x55d8985f6b80] Qavg: 65533.367\n",
      "ffmpeg version 4.2.7-0ubuntu0.1 Copyright (c) 2000-2022 the FFmpeg developers\n",
      "  built with gcc 9 (Ubuntu 9.4.0-1ubuntu1~20.04.1)\n",
      "  configuration: --prefix=/usr --extra-version=0ubuntu0.1 --toolchain=hardened --libdir=/usr/lib/x86_64-linux-gnu --incdir=/usr/include/x86_64-linux-gnu --arch=amd64 --enable-gpl --disable-stripping --enable-avresample --disable-filter=resample --enable-avisynth --enable-gnutls --enable-ladspa --enable-libaom --enable-libass --enable-libbluray --enable-libbs2b --enable-libcaca --enable-libcdio --enable-libcodec2 --enable-libflite --enable-libfontconfig --enable-libfreetype --enable-libfribidi --enable-libgme --enable-libgsm --enable-libjack --enable-libmp3lame --enable-libmysofa --enable-libopenjpeg --enable-libopenmpt --enable-libopus --enable-libpulse --enable-librsvg --enable-librubberband --enable-libshine --enable-libsnappy --enable-libsoxr --enable-libspeex --enable-libssh --enable-libtheora --enable-libtwolame --enable-libvidstab --enable-libvorbis --enable-libvpx --enable-libwavpack --enable-libwebp --enable-libx265 --enable-libxml2 --enable-libxvid --enable-libzmq --enable-libzvbi --enable-lv2 --enable-omx --enable-openal --enable-opencl --enable-opengl --enable-sdl2 --enable-libdc1394 --enable-libdrm --enable-libiec61883 --enable-nvenc --enable-chromaprint --enable-frei0r --enable-libx264 --enable-shared\n",
      "  libavutil      56. 31.100 / 56. 31.100\n",
      "  libavcodec     58. 54.100 / 58. 54.100\n",
      "  libavformat    58. 29.100 / 58. 29.100\n",
      "  libavdevice    58.  8.100 / 58.  8.100\n",
      "  libavfilter     7. 57.100 /  7. 57.100\n",
      "  libavresample   4.  0.  0 /  4.  0.  0\n",
      "  libswscale      5.  5.100 /  5.  5.100\n",
      "  libswresample   3.  5.100 /  3.  5.100\n",
      "  libpostproc    55.  5.100 / 55.  5.100\n",
      "Input #0, png_pipe, from './logoCombined2.png':\n",
      "  Duration: N/A, bitrate: N/A\n",
      "    Stream #0:0: Video: png, rgb24(pc), 960x540, 25 fps, 25 tbr, 25 tbn, 25 tbc\n",
      "Guessed Channel Layout for Input Stream #1.0 : mono\n",
      "Input #1, wav, from '/home/ansary/Shabab/book_readers/translated_bangla_seerah/020_-_Incident_of_Taif.wav':\n",
      "  Duration: 00:42:40.49, bitrate: 352 kb/s\n",
      "    Stream #1:0: Audio: pcm_s16le ([1][0][0][0] / 0x0001), 22050 Hz, mono, s16, 352 kb/s\n",
      "Stream mapping:\n",
      "  Stream #0:0 -> #0:0 (png (native) -> h264 (libx264))\n",
      "  Stream #1:0 -> #0:1 (pcm_s16le (native) -> aac (native))\n",
      "Press [q] to stop, [?] for help\n",
      "[libx264 @ 0x55a9e0346940] using cpu capabilities: MMX2 SSE2Fast SSSE3 SSE4.2 AVX FMA3 BMI2 AVX2 AVX512\n",
      "[libx264 @ 0x55a9e0346940] profile High, level 3.1\n",
      "[libx264 @ 0x55a9e0346940] 264 - core 155 r2917 0a84d98 - H.264/MPEG-4 AVC codec - Copyleft 2003-2018 - http://www.videolan.org/x264.html - options: cabac=1 ref=3 deblock=1:-3:-3 analyse=0x3:0x113 me=hex subme=7 psy=1 psy_rd=2.00:0.70 mixed_ref=1 me_range=16 chroma_me=1 trellis=1 8x8dct=1 cqm=0 deadzone=21,11 fast_pskip=1 chroma_qp_offset=-4 threads=17 lookahead_threads=2 sliced_threads=0 nr=0 decimate=1 interlaced=0 bluray_compat=0 constrained_intra=0 bframes=3 b_pyramid=2 b_adapt=1 b_bias=0 direct=1 weightb=1 open_gop=0 weightp=2 keyint=250 keyint_min=25 scenecut=40 intra_refresh=0 rc_lookahead=40 rc=crf mbtree=1 crf=23.0 qcomp=0.60 qpmin=0 qpmax=69 qpstep=4 ip_ratio=1.40 aq=1:1.20\n",
      "[aac @ 0x55a9e0348ac0] Too many bits 8916.462585 > 6144 per frame requested, clamping to max\n",
      "Output #0, mp4, to './videobook_translated_bangla_seerah/020_-_Incident_of_Taif.mp4':\n",
      "  Metadata:\n",
      "    encoder         : Lavf58.29.100\n",
      "    Stream #0:0: Video: h264 (libx264) (avc1 / 0x31637661), yuv420p(progressive), 960x540, q=-1--1, 25 fps, 12800 tbn, 25 tbc\n",
      "    Metadata:\n",
      "      encoder         : Lavc58.54.100 libx264\n",
      "    Side data:\n",
      "      cpb: bitrate max/min/avg: 0/0/0 buffer size: 0 vbv_delay: -1\n",
      "    Stream #0:1: Audio: aac (LC) (mp4a / 0x6134706D), 22050 Hz, mono, fltp, 132 kb/s\n",
      "    Metadata:\n",
      "      encoder         : Lavc58.54.100 aac\n"
     ]
    },
    {
     "name": "stdout",
     "output_type": "stream",
     "text": [
      "working on  /home/ansary/Shabab/book_readers/translated_bangla_seerah/020_-_Incident_of_Taif.wav\n"
     ]
    },
    {
     "name": "stderr",
     "output_type": "stream",
     "text": [
      "frame=64074 fps=230 q=-1.0 Lsize=   47721kB time=00:42:42.84 bitrate= 152.5kbits/s speed=9.21x    \n",
      "video:12352kB audio:33764kB subtitle:0kB other streams:0kB global headers:0kB muxing overhead: 3.481265%\n",
      "[libx264 @ 0x55a9e0346940] frame I:257   Avg QP: 8.72  size: 40851\n",
      "[libx264 @ 0x55a9e0346940] frame P:16147 Avg QP: 6.38  size:    43\n",
      "[libx264 @ 0x55a9e0346940] frame B:47670 Avg QP: 9.68  size:    30\n",
      "[libx264 @ 0x55a9e0346940] consecutive B-frames:  0.8%  0.0%  0.0% 99.2%\n",
      "[libx264 @ 0x55a9e0346940] mb I  I16..4: 65.8% 10.3% 23.9%\n",
      "[libx264 @ 0x55a9e0346940] mb P  I16..4:  0.0%  0.0%  0.0%  P16..4:  0.0%  0.0%  0.0%  0.0%  0.0%    skip:99.9%\n",
      "[libx264 @ 0x55a9e0346940] mb B  I16..4:  0.0%  0.0%  0.0%  B16..8:  0.1%  0.0%  0.0%  direct: 0.0%  skip:99.9%  L0:48.0% L1:52.0% BI: 0.0%\n",
      "[libx264 @ 0x55a9e0346940] 8x8 transform intra:10.3% inter:78.1%\n",
      "[libx264 @ 0x55a9e0346940] coded y,uvDC,uvAC intra: 30.6% 33.3% 31.8% inter: 0.0% 0.0% 0.0%\n",
      "[libx264 @ 0x55a9e0346940] i16 v,h,dc,p: 89%  3%  5%  3%\n",
      "[libx264 @ 0x55a9e0346940] i8 v,h,dc,ddl,ddr,vr,hd,vl,hu: 14% 11%  4% 29%  5%  7%  6% 15% 10%\n",
      "[libx264 @ 0x55a9e0346940] i4 v,h,dc,ddl,ddr,vr,hd,vl,hu: 21% 24% 10% 10%  7%  7%  7%  8%  6%\n",
      "[libx264 @ 0x55a9e0346940] i8c dc,h,v,p: 75% 10%  8%  7%\n",
      "[libx264 @ 0x55a9e0346940] Weighted P-Frames: Y:0.0% UV:0.0%\n",
      "[libx264 @ 0x55a9e0346940] ref P L0: 88.4%  0.8%  9.6%  1.2%\n",
      "[libx264 @ 0x55a9e0346940] ref B L0: 21.8% 78.0%  0.3%\n",
      "[libx264 @ 0x55a9e0346940] ref B L1: 99.5%  0.5%\n",
      "[libx264 @ 0x55a9e0346940] kb/s:39.48\n",
      "[aac @ 0x55a9e0348ac0] Qavg: 65533.383\n",
      "ffmpeg version 4.2.7-0ubuntu0.1 Copyright (c) 2000-2022 the FFmpeg developers\n",
      "  built with gcc 9 (Ubuntu 9.4.0-1ubuntu1~20.04.1)\n",
      "  configuration: --prefix=/usr --extra-version=0ubuntu0.1 --toolchain=hardened --libdir=/usr/lib/x86_64-linux-gnu --incdir=/usr/include/x86_64-linux-gnu --arch=amd64 --enable-gpl --disable-stripping --enable-avresample --disable-filter=resample --enable-avisynth --enable-gnutls --enable-ladspa --enable-libaom --enable-libass --enable-libbluray --enable-libbs2b --enable-libcaca --enable-libcdio --enable-libcodec2 --enable-libflite --enable-libfontconfig --enable-libfreetype --enable-libfribidi --enable-libgme --enable-libgsm --enable-libjack --enable-libmp3lame --enable-libmysofa --enable-libopenjpeg --enable-libopenmpt --enable-libopus --enable-libpulse --enable-librsvg --enable-librubberband --enable-libshine --enable-libsnappy --enable-libsoxr --enable-libspeex --enable-libssh --enable-libtheora --enable-libtwolame --enable-libvidstab --enable-libvorbis --enable-libvpx --enable-libwavpack --enable-libwebp --enable-libx265 --enable-libxml2 --enable-libxvid --enable-libzmq --enable-libzvbi --enable-lv2 --enable-omx --enable-openal --enable-opencl --enable-opengl --enable-sdl2 --enable-libdc1394 --enable-libdrm --enable-libiec61883 --enable-nvenc --enable-chromaprint --enable-frei0r --enable-libx264 --enable-shared\n",
      "  libavutil      56. 31.100 / 56. 31.100\n",
      "  libavcodec     58. 54.100 / 58. 54.100\n",
      "  libavformat    58. 29.100 / 58. 29.100\n",
      "  libavdevice    58.  8.100 / 58.  8.100\n",
      "  libavfilter     7. 57.100 /  7. 57.100\n",
      "  libavresample   4.  0.  0 /  4.  0.  0\n",
      "  libswscale      5.  5.100 /  5.  5.100\n",
      "  libswresample   3.  5.100 /  3.  5.100\n",
      "  libpostproc    55.  5.100 / 55.  5.100\n",
      "Input #0, png_pipe, from './logoCombined2.png':\n",
      "  Duration: N/A, bitrate: N/A\n",
      "    Stream #0:0: Video: png, rgb24(pc), 960x540, 25 fps, 25 tbr, 25 tbn, 25 tbc\n",
      "Guessed Channel Layout for Input Stream #1.0 : mono\n",
      "Input #1, wav, from '/home/ansary/Shabab/book_readers/translated_bangla_seerah/034_-_Change_of_the_Qiblah___Abrogation_in_Quran.wav':\n",
      "  Duration: 00:43:43.35, bitrate: 352 kb/s\n",
      "    Stream #1:0: Audio: pcm_s16le ([1][0][0][0] / 0x0001), 22050 Hz, mono, s16, 352 kb/s\n",
      "Stream mapping:\n",
      "  Stream #0:0 -> #0:0 (png (native) -> h264 (libx264))\n",
      "  Stream #1:0 -> #0:1 (pcm_s16le (native) -> aac (native))\n",
      "Press [q] to stop, [?] for help\n",
      "[libx264 @ 0x562931a8e980] using cpu capabilities: MMX2 SSE2Fast SSSE3 SSE4.2 AVX FMA3 BMI2 AVX2 AVX512\n",
      "[libx264 @ 0x562931a8e980] profile High, level 3.1\n",
      "[libx264 @ 0x562931a8e980] 264 - core 155 r2917 0a84d98 - H.264/MPEG-4 AVC codec - Copyleft 2003-2018 - http://www.videolan.org/x264.html - options: cabac=1 ref=3 deblock=1:-3:-3 analyse=0x3:0x113 me=hex subme=7 psy=1 psy_rd=2.00:0.70 mixed_ref=1 me_range=16 chroma_me=1 trellis=1 8x8dct=1 cqm=0 deadzone=21,11 fast_pskip=1 chroma_qp_offset=-4 threads=17 lookahead_threads=2 sliced_threads=0 nr=0 decimate=1 interlaced=0 bluray_compat=0 constrained_intra=0 bframes=3 b_pyramid=2 b_adapt=1 b_bias=0 direct=1 weightb=1 open_gop=0 weightp=2 keyint=250 keyint_min=25 scenecut=40 intra_refresh=0 rc_lookahead=40 rc=crf mbtree=1 crf=23.0 qcomp=0.60 qpmin=0 qpmax=69 qpstep=4 ip_ratio=1.40 aq=1:1.20\n",
      "[aac @ 0x562931a8fb80] Too many bits 8916.462585 > 6144 per frame requested, clamping to max\n",
      "Output #0, mp4, to './videobook_translated_bangla_seerah/034_-_Change_of_the_Qiblah___Abrogation_in_Quran.mp4':\n",
      "  Metadata:\n",
      "    encoder         : Lavf58.29.100\n",
      "    Stream #0:0: Video: h264 (libx264) (avc1 / 0x31637661), yuv420p(progressive), 960x540, q=-1--1, 25 fps, 12800 tbn, 25 tbc\n",
      "    Metadata:\n",
      "      encoder         : Lavc58.54.100 libx264\n",
      "    Side data:\n",
      "      cpb: bitrate max/min/avg: 0/0/0 buffer size: 0 vbv_delay: -1\n",
      "    Stream #0:1: Audio: aac (LC) (mp4a / 0x6134706D), 22050 Hz, mono, fltp, 132 kb/s\n",
      "    Metadata:\n",
      "      encoder         : Lavc58.54.100 aac\n"
     ]
    },
    {
     "name": "stdout",
     "output_type": "stream",
     "text": [
      "working on  /home/ansary/Shabab/book_readers/translated_bangla_seerah/034_-_Change_of_the_Qiblah___Abrogation_in_Quran.wav\n"
     ]
    },
    {
     "name": "stderr",
     "output_type": "stream",
     "text": [
      "frame=65646 fps=227 q=-1.0 Lsize=   48551kB time=00:43:45.72 bitrate= 151.5kbits/s speed=9.08x    \n",
      "video:12643kB audio:34263kB subtitle:0kB other streams:0kB global headers:0kB muxing overhead: 3.506547%\n",
      "[libx264 @ 0x562931a8e980] frame I:263   Avg QP: 8.72  size: 40852\n",
      "[libx264 @ 0x562931a8e980] frame P:16543 Avg QP: 6.38  size:    43\n",
      "[libx264 @ 0x562931a8e980] frame B:48840 Avg QP: 9.68  size:    30\n",
      "[libx264 @ 0x562931a8e980] consecutive B-frames:  0.8%  0.0%  0.0% 99.2%\n",
      "[libx264 @ 0x562931a8e980] mb I  I16..4: 65.8% 10.3% 23.9%\n",
      "[libx264 @ 0x562931a8e980] mb P  I16..4:  0.0%  0.0%  0.0%  P16..4:  0.0%  0.0%  0.0%  0.0%  0.0%    skip:99.9%\n",
      "[libx264 @ 0x562931a8e980] mb B  I16..4:  0.0%  0.0%  0.0%  B16..8:  0.1%  0.0%  0.0%  direct: 0.0%  skip:99.9%  L0:48.0% L1:52.0% BI: 0.0%\n",
      "[libx264 @ 0x562931a8e980] 8x8 transform intra:10.3% inter:78.1%\n",
      "[libx264 @ 0x562931a8e980] coded y,uvDC,uvAC intra: 30.6% 33.3% 31.8% inter: 0.0% 0.0% 0.0%\n",
      "[libx264 @ 0x562931a8e980] i16 v,h,dc,p: 89%  3%  5%  3%\n",
      "[libx264 @ 0x562931a8e980] i8 v,h,dc,ddl,ddr,vr,hd,vl,hu: 14% 11%  4% 29%  5%  7%  6% 15% 10%\n",
      "[libx264 @ 0x562931a8e980] i4 v,h,dc,ddl,ddr,vr,hd,vl,hu: 21% 24% 10% 10%  7%  7%  7%  8%  6%\n",
      "[libx264 @ 0x562931a8e980] i8c dc,h,v,p: 75% 10%  8%  7%\n",
      "[libx264 @ 0x562931a8e980] Weighted P-Frames: Y:0.0% UV:0.0%\n",
      "[libx264 @ 0x562931a8e980] ref P L0: 88.4%  0.8%  9.6%  1.2%\n",
      "[libx264 @ 0x562931a8e980] ref B L0: 21.8% 78.0%  0.3%\n",
      "[libx264 @ 0x562931a8e980] ref B L1: 99.5%  0.5%\n",
      "[libx264 @ 0x562931a8e980] kb/s:39.44\n",
      "[aac @ 0x562931a8fb80] Qavg: 65532.133\n",
      "ffmpeg version 4.2.7-0ubuntu0.1 Copyright (c) 2000-2022 the FFmpeg developers\n",
      "  built with gcc 9 (Ubuntu 9.4.0-1ubuntu1~20.04.1)\n",
      "  configuration: --prefix=/usr --extra-version=0ubuntu0.1 --toolchain=hardened --libdir=/usr/lib/x86_64-linux-gnu --incdir=/usr/include/x86_64-linux-gnu --arch=amd64 --enable-gpl --disable-stripping --enable-avresample --disable-filter=resample --enable-avisynth --enable-gnutls --enable-ladspa --enable-libaom --enable-libass --enable-libbluray --enable-libbs2b --enable-libcaca --enable-libcdio --enable-libcodec2 --enable-libflite --enable-libfontconfig --enable-libfreetype --enable-libfribidi --enable-libgme --enable-libgsm --enable-libjack --enable-libmp3lame --enable-libmysofa --enable-libopenjpeg --enable-libopenmpt --enable-libopus --enable-libpulse --enable-librsvg --enable-librubberband --enable-libshine --enable-libsnappy --enable-libsoxr --enable-libspeex --enable-libssh --enable-libtheora --enable-libtwolame --enable-libvidstab --enable-libvorbis --enable-libvpx --enable-libwavpack --enable-libwebp --enable-libx265 --enable-libxml2 --enable-libxvid --enable-libzmq --enable-libzvbi --enable-lv2 --enable-omx --enable-openal --enable-opencl --enable-opengl --enable-sdl2 --enable-libdc1394 --enable-libdrm --enable-libiec61883 --enable-nvenc --enable-chromaprint --enable-frei0r --enable-libx264 --enable-shared\n",
      "  libavutil      56. 31.100 / 56. 31.100\n",
      "  libavcodec     58. 54.100 / 58. 54.100\n",
      "  libavformat    58. 29.100 / 58. 29.100\n",
      "  libavdevice    58.  8.100 / 58.  8.100\n",
      "  libavfilter     7. 57.100 /  7. 57.100\n",
      "  libavresample   4.  0.  0 /  4.  0.  0\n",
      "  libswscale      5.  5.100 /  5.  5.100\n",
      "  libswresample   3.  5.100 /  3.  5.100\n",
      "  libpostproc    55.  5.100 / 55.  5.100\n",
      "Input #0, png_pipe, from './logoCombined2.png':\n",
      "  Duration: N/A, bitrate: N/A\n",
      "    Stream #0:0: Video: png, rgb24(pc), 960x540, 25 fps, 25 tbr, 25 tbn, 25 tbc\n",
      "Guessed Channel Layout for Input Stream #1.0 : mono\n",
      "Input #1, wav, from '/home/ansary/Shabab/book_readers/translated_bangla_seerah/044_-_Assassination_of_Kab_ibn_al-Ashraf.wav':\n",
      "  Duration: 00:33:08.92, bitrate: 352 kb/s\n",
      "    Stream #1:0: Audio: pcm_s16le ([1][0][0][0] / 0x0001), 22050 Hz, mono, s16, 352 kb/s\n",
      "Stream mapping:\n",
      "  Stream #0:0 -> #0:0 (png (native) -> h264 (libx264))\n",
      "  Stream #1:0 -> #0:1 (pcm_s16le (native) -> aac (native))\n",
      "Press [q] to stop, [?] for help\n",
      "[libx264 @ 0x56528a3f3440] using cpu capabilities: MMX2 SSE2Fast SSSE3 SSE4.2 AVX FMA3 BMI2 AVX2 AVX512\n",
      "[libx264 @ 0x56528a3f3440] profile High, level 3.1\n",
      "[libx264 @ 0x56528a3f3440] 264 - core 155 r2917 0a84d98 - H.264/MPEG-4 AVC codec - Copyleft 2003-2018 - http://www.videolan.org/x264.html - options: cabac=1 ref=3 deblock=1:-3:-3 analyse=0x3:0x113 me=hex subme=7 psy=1 psy_rd=2.00:0.70 mixed_ref=1 me_range=16 chroma_me=1 trellis=1 8x8dct=1 cqm=0 deadzone=21,11 fast_pskip=1 chroma_qp_offset=-4 threads=17 lookahead_threads=2 sliced_threads=0 nr=0 decimate=1 interlaced=0 bluray_compat=0 constrained_intra=0 bframes=3 b_pyramid=2 b_adapt=1 b_bias=0 direct=1 weightb=1 open_gop=0 weightp=2 keyint=250 keyint_min=25 scenecut=40 intra_refresh=0 rc_lookahead=40 rc=crf mbtree=1 crf=23.0 qcomp=0.60 qpmin=0 qpmax=69 qpstep=4 ip_ratio=1.40 aq=1:1.20\n",
      "[aac @ 0x56528a3f44c0] Too many bits 8916.462585 > 6144 per frame requested, clamping to max\n",
      "Output #0, mp4, to './videobook_translated_bangla_seerah/044_-_Assassination_of_Kab_ibn_al-Ashraf.mp4':\n",
      "  Metadata:\n",
      "    encoder         : Lavf58.29.100\n",
      "    Stream #0:0: Video: h264 (libx264) (avc1 / 0x31637661), yuv420p(progressive), 960x540, q=-1--1, 25 fps, 12800 tbn, 25 tbc\n",
      "    Metadata:\n",
      "      encoder         : Lavc58.54.100 libx264\n",
      "    Side data:\n",
      "      cpb: bitrate max/min/avg: 0/0/0 buffer size: 0 vbv_delay: -1\n",
      "    Stream #0:1: Audio: aac (LC) (mp4a / 0x6134706D), 22050 Hz, mono, fltp, 132 kb/s\n",
      "    Metadata:\n",
      "      encoder         : Lavc58.54.100 aac\n"
     ]
    },
    {
     "name": "stdout",
     "output_type": "stream",
     "text": [
      "working on  /home/ansary/Shabab/book_readers/translated_bangla_seerah/044_-_Assassination_of_Kab_ibn_al-Ashraf.wav\n"
     ]
    },
    {
     "name": "stderr",
     "output_type": "stream",
     "text": [
      "frame=49784 fps=230 q=-1.0 Lsize=   36645kB time=00:33:11.24 bitrate= 150.8kbits/s speed=9.21x    \n",
      "video:9608kB audio:25789kB subtitle:0kB other streams:0kB global headers:0kB muxing overhead: 3.524300%\n",
      "[libx264 @ 0x56528a3f3440] frame I:200   Avg QP: 8.73  size: 40834\n",
      "[libx264 @ 0x56528a3f3440] frame P:12546 Avg QP: 6.39  size:    43\n",
      "[libx264 @ 0x56528a3f3440] frame B:37038 Avg QP: 9.68  size:    30\n",
      "[libx264 @ 0x56528a3f3440] consecutive B-frames:  0.8%  0.0%  0.0% 99.2%\n",
      "[libx264 @ 0x56528a3f3440] mb I  I16..4: 65.8% 10.4% 23.9%\n",
      "[libx264 @ 0x56528a3f3440] mb P  I16..4:  0.0%  0.0%  0.0%  P16..4:  0.0%  0.0%  0.0%  0.0%  0.0%    skip:99.9%\n",
      "[libx264 @ 0x56528a3f3440] mb B  I16..4:  0.0%  0.0%  0.0%  B16..8:  0.1%  0.0%  0.0%  direct: 0.0%  skip:99.9%  L0:48.2% L1:51.8% BI: 0.0%\n",
      "[libx264 @ 0x56528a3f3440] 8x8 transform intra:10.4% inter:78.2%\n",
      "[libx264 @ 0x56528a3f3440] coded y,uvDC,uvAC intra: 30.6% 33.3% 31.7% inter: 0.0% 0.0% 0.0%\n",
      "[libx264 @ 0x56528a3f3440] i16 v,h,dc,p: 89%  3%  5%  3%\n",
      "[libx264 @ 0x56528a3f3440] i8 v,h,dc,ddl,ddr,vr,hd,vl,hu: 14% 11%  4% 29%  5%  7%  6% 15% 10%\n",
      "[libx264 @ 0x56528a3f3440] i4 v,h,dc,ddl,ddr,vr,hd,vl,hu: 21% 24% 10% 10%  7%  7%  7%  8%  6%\n",
      "[libx264 @ 0x56528a3f3440] i8c dc,h,v,p: 75% 10%  8%  7%\n",
      "[libx264 @ 0x56528a3f3440] Weighted P-Frames: Y:0.0% UV:0.0%\n",
      "[libx264 @ 0x56528a3f3440] ref P L0: 88.3%  0.8%  9.6%  1.2%\n",
      "[libx264 @ 0x56528a3f3440] ref B L0: 21.8% 77.9%  0.3%\n",
      "[libx264 @ 0x56528a3f3440] ref B L1: 99.5%  0.5%\n",
      "[libx264 @ 0x56528a3f3440] kb/s:39.52\n",
      "[aac @ 0x56528a3f44c0] Qavg: 65532.785\n",
      "ffmpeg version 4.2.7-0ubuntu0.1 Copyright (c) 2000-2022 the FFmpeg developers\n",
      "  built with gcc 9 (Ubuntu 9.4.0-1ubuntu1~20.04.1)\n",
      "  configuration: --prefix=/usr --extra-version=0ubuntu0.1 --toolchain=hardened --libdir=/usr/lib/x86_64-linux-gnu --incdir=/usr/include/x86_64-linux-gnu --arch=amd64 --enable-gpl --disable-stripping --enable-avresample --disable-filter=resample --enable-avisynth --enable-gnutls --enable-ladspa --enable-libaom --enable-libass --enable-libbluray --enable-libbs2b --enable-libcaca --enable-libcdio --enable-libcodec2 --enable-libflite --enable-libfontconfig --enable-libfreetype --enable-libfribidi --enable-libgme --enable-libgsm --enable-libjack --enable-libmp3lame --enable-libmysofa --enable-libopenjpeg --enable-libopenmpt --enable-libopus --enable-libpulse --enable-librsvg --enable-librubberband --enable-libshine --enable-libsnappy --enable-libsoxr --enable-libspeex --enable-libssh --enable-libtheora --enable-libtwolame --enable-libvidstab --enable-libvorbis --enable-libvpx --enable-libwavpack --enable-libwebp --enable-libx265 --enable-libxml2 --enable-libxvid --enable-libzmq --enable-libzvbi --enable-lv2 --enable-omx --enable-openal --enable-opencl --enable-opengl --enable-sdl2 --enable-libdc1394 --enable-libdrm --enable-libiec61883 --enable-nvenc --enable-chromaprint --enable-frei0r --enable-libx264 --enable-shared\n",
      "  libavutil      56. 31.100 / 56. 31.100\n",
      "  libavcodec     58. 54.100 / 58. 54.100\n",
      "  libavformat    58. 29.100 / 58. 29.100\n",
      "  libavdevice    58.  8.100 / 58.  8.100\n",
      "  libavfilter     7. 57.100 /  7. 57.100\n",
      "  libavresample   4.  0.  0 /  4.  0.  0\n",
      "  libswscale      5.  5.100 /  5.  5.100\n",
      "  libswresample   3.  5.100 /  3.  5.100\n",
      "  libpostproc    55.  5.100 / 55.  5.100\n",
      "Input #0, png_pipe, from './logoCombined2.png':\n",
      "  Duration: N/A, bitrate: N/A\n",
      "    Stream #0:0: Video: png, rgb24(pc), 960x540, 25 fps, 25 tbr, 25 tbn, 25 tbc\n",
      "Guessed Channel Layout for Input Stream #1.0 : mono\n",
      "Input #1, wav, from '/home/ansary/Shabab/book_readers/translated_bangla_seerah/051_-_Massacres_of_Al_Raji___Bir_Mauna.wav':\n",
      "  Duration: 00:40:38.25, bitrate: 352 kb/s\n",
      "    Stream #1:0: Audio: pcm_s16le ([1][0][0][0] / 0x0001), 22050 Hz, mono, s16, 352 kb/s\n",
      "Stream mapping:\n",
      "  Stream #0:0 -> #0:0 (png (native) -> h264 (libx264))\n",
      "  Stream #1:0 -> #0:1 (pcm_s16le (native) -> aac (native))\n",
      "Press [q] to stop, [?] for help\n",
      "[libx264 @ 0x5561f2957440] using cpu capabilities: MMX2 SSE2Fast SSSE3 SSE4.2 AVX FMA3 BMI2 AVX2 AVX512\n",
      "[libx264 @ 0x5561f2957440] profile High, level 3.1\n",
      "[libx264 @ 0x5561f2957440] 264 - core 155 r2917 0a84d98 - H.264/MPEG-4 AVC codec - Copyleft 2003-2018 - http://www.videolan.org/x264.html - options: cabac=1 ref=3 deblock=1:-3:-3 analyse=0x3:0x113 me=hex subme=7 psy=1 psy_rd=2.00:0.70 mixed_ref=1 me_range=16 chroma_me=1 trellis=1 8x8dct=1 cqm=0 deadzone=21,11 fast_pskip=1 chroma_qp_offset=-4 threads=17 lookahead_threads=2 sliced_threads=0 nr=0 decimate=1 interlaced=0 bluray_compat=0 constrained_intra=0 bframes=3 b_pyramid=2 b_adapt=1 b_bias=0 direct=1 weightb=1 open_gop=0 weightp=2 keyint=250 keyint_min=25 scenecut=40 intra_refresh=0 rc_lookahead=40 rc=crf mbtree=1 crf=23.0 qcomp=0.60 qpmin=0 qpmax=69 qpstep=4 ip_ratio=1.40 aq=1:1.20\n",
      "[aac @ 0x5561f29584c0] Too many bits 8916.462585 > 6144 per frame requested, clamping to max\n",
      "Output #0, mp4, to './videobook_translated_bangla_seerah/051_-_Massacres_of_Al_Raji___Bir_Mauna.mp4':\n",
      "  Metadata:\n",
      "    encoder         : Lavf58.29.100\n",
      "    Stream #0:0: Video: h264 (libx264) (avc1 / 0x31637661), yuv420p(progressive), 960x540, q=-1--1, 25 fps, 12800 tbn, 25 tbc\n",
      "    Metadata:\n",
      "      encoder         : Lavc58.54.100 libx264\n",
      "    Side data:\n",
      "      cpb: bitrate max/min/avg: 0/0/0 buffer size: 0 vbv_delay: -1\n",
      "    Stream #0:1: Audio: aac (LC) (mp4a / 0x6134706D), 22050 Hz, mono, fltp, 132 kb/s\n",
      "    Metadata:\n",
      "      encoder         : Lavc58.54.100 aac\n"
     ]
    },
    {
     "name": "stdout",
     "output_type": "stream",
     "text": [
      "working on  /home/ansary/Shabab/book_readers/translated_bangla_seerah/051_-_Massacres_of_Al_Raji___Bir_Mauna.wav\n"
     ]
    },
    {
     "name": "stderr",
     "output_type": "stream",
     "text": [
      "frame=61018 fps=233 q=-1.0 Lsize=   44665kB time=00:40:40.60 bitrate= 149.9kbits/s speed=9.31x    \n",
      "video:11767kB audio:31369kB subtitle:0kB other streams:0kB global headers:0kB muxing overhead: 3.544298%\n",
      "[libx264 @ 0x5561f2957440] frame I:245   Avg QP: 8.73  size: 40822\n",
      "[libx264 @ 0x5561f2957440] frame P:15377 Avg QP: 6.39  size:    43\n",
      "[libx264 @ 0x5561f2957440] frame B:45396 Avg QP: 9.68  size:    30\n",
      "[libx264 @ 0x5561f2957440] consecutive B-frames:  0.8%  0.0%  0.0% 99.2%\n",
      "[libx264 @ 0x5561f2957440] mb I  I16..4: 65.8% 10.3% 23.9%\n",
      "[libx264 @ 0x5561f2957440] mb P  I16..4:  0.0%  0.0%  0.0%  P16..4:  0.0%  0.0%  0.0%  0.0%  0.0%    skip:99.9%\n",
      "[libx264 @ 0x5561f2957440] mb B  I16..4:  0.0%  0.0%  0.0%  B16..8:  0.1%  0.0%  0.0%  direct: 0.0%  skip:99.9%  L0:48.0% L1:52.0% BI: 0.0%\n",
      "[libx264 @ 0x5561f2957440] 8x8 transform intra:10.3% inter:78.1%\n",
      "[libx264 @ 0x5561f2957440] coded y,uvDC,uvAC intra: 30.6% 33.3% 31.7% inter: 0.0% 0.0% 0.0%\n",
      "[libx264 @ 0x5561f2957440] i16 v,h,dc,p: 89%  3%  5%  3%\n",
      "[libx264 @ 0x5561f2957440] i8 v,h,dc,ddl,ddr,vr,hd,vl,hu: 14% 11%  4% 29%  5%  7%  6% 15% 10%\n",
      "[libx264 @ 0x5561f2957440] i4 v,h,dc,ddl,ddr,vr,hd,vl,hu: 21% 24% 10% 10%  7%  7%  7%  8%  6%\n",
      "[libx264 @ 0x5561f2957440] i8c dc,h,v,p: 75% 10%  8%  7%\n",
      "[libx264 @ 0x5561f2957440] Weighted P-Frames: Y:0.0% UV:0.0%\n",
      "[libx264 @ 0x5561f2957440] ref P L0: 88.4%  0.8%  9.6%  1.2%\n",
      "[libx264 @ 0x5561f2957440] ref B L0: 21.8% 78.0%  0.3%\n",
      "[libx264 @ 0x5561f2957440] ref B L1: 99.5%  0.5%\n",
      "[libx264 @ 0x5561f2957440] kb/s:39.49\n",
      "[aac @ 0x5561f29584c0] Qavg: 65533.312\n",
      "ffmpeg version 4.2.7-0ubuntu0.1 Copyright (c) 2000-2022 the FFmpeg developers\n",
      "  built with gcc 9 (Ubuntu 9.4.0-1ubuntu1~20.04.1)\n",
      "  configuration: --prefix=/usr --extra-version=0ubuntu0.1 --toolchain=hardened --libdir=/usr/lib/x86_64-linux-gnu --incdir=/usr/include/x86_64-linux-gnu --arch=amd64 --enable-gpl --disable-stripping --enable-avresample --disable-filter=resample --enable-avisynth --enable-gnutls --enable-ladspa --enable-libaom --enable-libass --enable-libbluray --enable-libbs2b --enable-libcaca --enable-libcdio --enable-libcodec2 --enable-libflite --enable-libfontconfig --enable-libfreetype --enable-libfribidi --enable-libgme --enable-libgsm --enable-libjack --enable-libmp3lame --enable-libmysofa --enable-libopenjpeg --enable-libopenmpt --enable-libopus --enable-libpulse --enable-librsvg --enable-librubberband --enable-libshine --enable-libsnappy --enable-libsoxr --enable-libspeex --enable-libssh --enable-libtheora --enable-libtwolame --enable-libvidstab --enable-libvorbis --enable-libvpx --enable-libwavpack --enable-libwebp --enable-libx265 --enable-libxml2 --enable-libxvid --enable-libzmq --enable-libzvbi --enable-lv2 --enable-omx --enable-openal --enable-opencl --enable-opengl --enable-sdl2 --enable-libdc1394 --enable-libdrm --enable-libiec61883 --enable-nvenc --enable-chromaprint --enable-frei0r --enable-libx264 --enable-shared\n",
      "  libavutil      56. 31.100 / 56. 31.100\n",
      "  libavcodec     58. 54.100 / 58. 54.100\n",
      "  libavformat    58. 29.100 / 58. 29.100\n",
      "  libavdevice    58.  8.100 / 58.  8.100\n",
      "  libavfilter     7. 57.100 /  7. 57.100\n",
      "  libavresample   4.  0.  0 /  4.  0.  0\n",
      "  libswscale      5.  5.100 /  5.  5.100\n",
      "  libswresample   3.  5.100 /  3.  5.100\n",
      "  libpostproc    55.  5.100 / 55.  5.100\n",
      "Input #0, png_pipe, from './logoCombined2.png':\n",
      "  Duration: N/A, bitrate: N/A\n",
      "    Stream #0:0: Video: png, rgb24(pc), 960x540, 25 fps, 25 tbr, 25 tbn, 25 tbc\n",
      "Guessed Channel Layout for Input Stream #1.0 : mono\n",
      "Input #1, wav, from '/home/ansary/Shabab/book_readers/translated_bangla_seerah/055_-_Return_from_Al-Muraysi___Slander_of_Aisha_P1.wav':\n",
      "  Duration: 00:38:54.22, bitrate: 352 kb/s\n",
      "    Stream #1:0: Audio: pcm_s16le ([1][0][0][0] / 0x0001), 22050 Hz, mono, s16, 352 kb/s\n",
      "Stream mapping:\n",
      "  Stream #0:0 -> #0:0 (png (native) -> h264 (libx264))\n",
      "  Stream #1:0 -> #0:1 (pcm_s16le (native) -> aac (native))\n",
      "Press [q] to stop, [?] for help\n",
      "[libx264 @ 0x562e07cd7980] using cpu capabilities: MMX2 SSE2Fast SSSE3 SSE4.2 AVX FMA3 BMI2 AVX2 AVX512\n",
      "[libx264 @ 0x562e07cd7980] profile High, level 3.1\n",
      "[libx264 @ 0x562e07cd7980] 264 - core 155 r2917 0a84d98 - H.264/MPEG-4 AVC codec - Copyleft 2003-2018 - http://www.videolan.org/x264.html - options: cabac=1 ref=3 deblock=1:-3:-3 analyse=0x3:0x113 me=hex subme=7 psy=1 psy_rd=2.00:0.70 mixed_ref=1 me_range=16 chroma_me=1 trellis=1 8x8dct=1 cqm=0 deadzone=21,11 fast_pskip=1 chroma_qp_offset=-4 threads=17 lookahead_threads=2 sliced_threads=0 nr=0 decimate=1 interlaced=0 bluray_compat=0 constrained_intra=0 bframes=3 b_pyramid=2 b_adapt=1 b_bias=0 direct=1 weightb=1 open_gop=0 weightp=2 keyint=250 keyint_min=25 scenecut=40 intra_refresh=0 rc_lookahead=40 rc=crf mbtree=1 crf=23.0 qcomp=0.60 qpmin=0 qpmax=69 qpstep=4 ip_ratio=1.40 aq=1:1.20\n"
     ]
    },
    {
     "name": "stdout",
     "output_type": "stream",
     "text": [
      "working on  /home/ansary/Shabab/book_readers/translated_bangla_seerah/055_-_Return_from_Al-Muraysi___Slander_of_Aisha_P1.wav\n"
     ]
    },
    {
     "name": "stderr",
     "output_type": "stream",
     "text": [
      "[aac @ 0x562e07cd8b80] Too many bits 8916.462585 > 6144 per frame requested, clamping to max\n",
      "Output #0, mp4, to './videobook_translated_bangla_seerah/055_-_Return_from_Al-Muraysi___Slander_of_Aisha_P1.mp4':\n",
      "  Metadata:\n",
      "    encoder         : Lavf58.29.100\n",
      "    Stream #0:0: Video: h264 (libx264) (avc1 / 0x31637661), yuv420p(progressive), 960x540, q=-1--1, 25 fps, 12800 tbn, 25 tbc\n",
      "    Metadata:\n",
      "      encoder         : Lavc58.54.100 libx264\n",
      "    Side data:\n",
      "      cpb: bitrate max/min/avg: 0/0/0 buffer size: 0 vbv_delay: -1\n",
      "    Stream #0:1: Audio: aac (LC) (mp4a / 0x6134706D), 22050 Hz, mono, fltp, 132 kb/s\n",
      "    Metadata:\n",
      "      encoder         : Lavc58.54.100 aac\n",
      "frame=58417 fps=231 q=-1.0 Lsize=   43212kB time=00:38:56.56 bitrate= 151.5kbits/s speed=9.25x    \n",
      "video:11249kB audio:30499kB subtitle:0kB other streams:0kB global headers:0kB muxing overhead: 3.506137%\n",
      "[libx264 @ 0x562e07cd7980] frame I:234   Avg QP: 8.72  size: 40849\n",
      "[libx264 @ 0x562e07cd7980] frame P:14721 Avg QP: 6.39  size:    43\n",
      "[libx264 @ 0x562e07cd7980] frame B:43462 Avg QP: 9.68  size:    30\n",
      "[libx264 @ 0x562e07cd7980] consecutive B-frames:  0.8%  0.0%  0.0% 99.2%\n",
      "[libx264 @ 0x562e07cd7980] mb I  I16..4: 65.8% 10.3% 23.9%\n",
      "[libx264 @ 0x562e07cd7980] mb P  I16..4:  0.0%  0.0%  0.0%  P16..4:  0.0%  0.0%  0.0%  0.0%  0.0%    skip:99.9%\n",
      "[libx264 @ 0x562e07cd7980] mb B  I16..4:  0.0%  0.0%  0.0%  B16..8:  0.1%  0.0%  0.0%  direct: 0.0%  skip:99.9%  L0:48.0% L1:52.0% BI: 0.0%\n",
      "[libx264 @ 0x562e07cd7980] 8x8 transform intra:10.3% inter:78.2%\n",
      "[libx264 @ 0x562e07cd7980] coded y,uvDC,uvAC intra: 30.6% 33.3% 31.8% inter: 0.0% 0.0% 0.0%\n",
      "[libx264 @ 0x562e07cd7980] i16 v,h,dc,p: 89%  3%  5%  3%\n",
      "[libx264 @ 0x562e07cd7980] i8 v,h,dc,ddl,ddr,vr,hd,vl,hu: 14% 11%  4% 29%  5%  7%  6% 15% 10%\n",
      "[libx264 @ 0x562e07cd7980] i4 v,h,dc,ddl,ddr,vr,hd,vl,hu: 21% 24% 10% 10%  7%  7%  7%  8%  6%\n",
      "[libx264 @ 0x562e07cd7980] i8c dc,h,v,p: 75% 10%  8%  7%\n",
      "[libx264 @ 0x562e07cd7980] Weighted P-Frames: Y:0.0% UV:0.0%\n",
      "[libx264 @ 0x562e07cd7980] ref P L0: 88.4%  0.9%  9.6%  1.2%\n",
      "[libx264 @ 0x562e07cd7980] ref B L0: 21.8% 78.0%  0.3%\n",
      "[libx264 @ 0x562e07cd7980] ref B L1: 99.5%  0.5%\n",
      "[libx264 @ 0x562e07cd7980] kb/s:39.43\n",
      "[aac @ 0x562e07cd8b80] Qavg: 65531.074\n",
      "ffmpeg version 4.2.7-0ubuntu0.1 Copyright (c) 2000-2022 the FFmpeg developers\n",
      "  built with gcc 9 (Ubuntu 9.4.0-1ubuntu1~20.04.1)\n",
      "  configuration: --prefix=/usr --extra-version=0ubuntu0.1 --toolchain=hardened --libdir=/usr/lib/x86_64-linux-gnu --incdir=/usr/include/x86_64-linux-gnu --arch=amd64 --enable-gpl --disable-stripping --enable-avresample --disable-filter=resample --enable-avisynth --enable-gnutls --enable-ladspa --enable-libaom --enable-libass --enable-libbluray --enable-libbs2b --enable-libcaca --enable-libcdio --enable-libcodec2 --enable-libflite --enable-libfontconfig --enable-libfreetype --enable-libfribidi --enable-libgme --enable-libgsm --enable-libjack --enable-libmp3lame --enable-libmysofa --enable-libopenjpeg --enable-libopenmpt --enable-libopus --enable-libpulse --enable-librsvg --enable-librubberband --enable-libshine --enable-libsnappy --enable-libsoxr --enable-libspeex --enable-libssh --enable-libtheora --enable-libtwolame --enable-libvidstab --enable-libvorbis --enable-libvpx --enable-libwavpack --enable-libwebp --enable-libx265 --enable-libxml2 --enable-libxvid --enable-libzmq --enable-libzvbi --enable-lv2 --enable-omx --enable-openal --enable-opencl --enable-opengl --enable-sdl2 --enable-libdc1394 --enable-libdrm --enable-libiec61883 --enable-nvenc --enable-chromaprint --enable-frei0r --enable-libx264 --enable-shared\n",
      "  libavutil      56. 31.100 / 56. 31.100\n",
      "  libavcodec     58. 54.100 / 58. 54.100\n",
      "  libavformat    58. 29.100 / 58. 29.100\n",
      "  libavdevice    58.  8.100 / 58.  8.100\n",
      "  libavfilter     7. 57.100 /  7. 57.100\n",
      "  libavresample   4.  0.  0 /  4.  0.  0\n",
      "  libswscale      5.  5.100 /  5.  5.100\n",
      "  libswresample   3.  5.100 /  3.  5.100\n",
      "  libpostproc    55.  5.100 / 55.  5.100\n",
      "Input #0, png_pipe, from './logoCombined2.png':\n",
      "  Duration: N/A, bitrate: N/A\n",
      "    Stream #0:0: Video: png, rgb24(pc), 960x540, 25 fps, 25 tbr, 25 tbn, 25 tbc\n",
      "Guessed Channel Layout for Input Stream #1.0 : mono\n",
      "Input #1, wav, from '/home/ansary/Shabab/book_readers/translated_bangla_seerah/069_-_The_Prophet_SAWs_Marriage_to_Zaynab.wav':\n",
      "  Duration: 00:47:43.96, bitrate: 352 kb/s\n",
      "    Stream #1:0: Audio: pcm_s16le ([1][0][0][0] / 0x0001), 22050 Hz, mono, s16, 352 kb/s\n",
      "Stream mapping:\n",
      "  Stream #0:0 -> #0:0 (png (native) -> h264 (libx264))\n",
      "  Stream #1:0 -> #0:1 (pcm_s16le (native) -> aac (native))\n",
      "Press [q] to stop, [?] for help\n",
      "[libx264 @ 0x55abd6eff440] using cpu capabilities: MMX2 SSE2Fast SSSE3 SSE4.2 AVX FMA3 BMI2 AVX2 AVX512\n",
      "[libx264 @ 0x55abd6eff440] profile High, level 3.1\n",
      "[libx264 @ 0x55abd6eff440] 264 - core 155 r2917 0a84d98 - H.264/MPEG-4 AVC codec - Copyleft 2003-2018 - http://www.videolan.org/x264.html - options: cabac=1 ref=3 deblock=1:-3:-3 analyse=0x3:0x113 me=hex subme=7 psy=1 psy_rd=2.00:0.70 mixed_ref=1 me_range=16 chroma_me=1 trellis=1 8x8dct=1 cqm=0 deadzone=21,11 fast_pskip=1 chroma_qp_offset=-4 threads=17 lookahead_threads=2 sliced_threads=0 nr=0 decimate=1 interlaced=0 bluray_compat=0 constrained_intra=0 bframes=3 b_pyramid=2 b_adapt=1 b_bias=0 direct=1 weightb=1 open_gop=0 weightp=2 keyint=250 keyint_min=25 scenecut=40 intra_refresh=0 rc_lookahead=40 rc=crf mbtree=1 crf=23.0 qcomp=0.60 qpmin=0 qpmax=69 qpstep=4 ip_ratio=1.40 aq=1:1.20\n",
      "[aac @ 0x55abd6f004c0] Too many bits 8916.462585 > 6144 per frame requested, clamping to max\n",
      "Output #0, mp4, to './videobook_translated_bangla_seerah/069_-_The_Prophet_SAWs_Marriage_to_Zaynab.mp4':\n",
      "  Metadata:\n",
      "    encoder         : Lavf58.29.100\n",
      "    Stream #0:0: Video: h264 (libx264) (avc1 / 0x31637661), yuv420p(progressive), 960x540, q=-1--1, 25 fps, 12800 tbn, 25 tbc\n",
      "    Metadata:\n",
      "      encoder         : Lavc58.54.100 libx264\n",
      "    Side data:\n",
      "      cpb: bitrate max/min/avg: 0/0/0 buffer size: 0 vbv_delay: -1\n",
      "    Stream #0:1: Audio: aac (LC) (mp4a / 0x6134706D), 22050 Hz, mono, fltp, 132 kb/s\n",
      "    Metadata:\n",
      "      encoder         : Lavc58.54.100 aac\n"
     ]
    },
    {
     "name": "stdout",
     "output_type": "stream",
     "text": [
      "working on  /home/ansary/Shabab/book_readers/translated_bangla_seerah/069_-_The_Prophet_SAWs_Marriage_to_Zaynab.wav\n"
     ]
    },
    {
     "name": "stderr",
     "output_type": "stream",
     "text": [
      "frame=71661 fps=235 q=-1.0 Lsize=   52982kB time=00:47:46.32 bitrate= 151.4kbits/s speed=9.39x    \n",
      "video:13798kB audio:37389kB subtitle:0kB other streams:0kB global headers:0kB muxing overhead: 3.507639%\n",
      "[libx264 @ 0x55abd6eff440] frame I:287   Avg QP: 8.72  size: 40854\n",
      "[libx264 @ 0x55abd6eff440] frame P:18058 Avg QP: 6.38  size:    43\n",
      "[libx264 @ 0x55abd6eff440] frame B:53316 Avg QP: 9.68  size:    30\n",
      "[libx264 @ 0x55abd6eff440] consecutive B-frames:  0.8%  0.0%  0.0% 99.2%\n",
      "[libx264 @ 0x55abd6eff440] mb I  I16..4: 65.8% 10.3% 23.9%\n",
      "[libx264 @ 0x55abd6eff440] mb P  I16..4:  0.0%  0.0%  0.0%  P16..4:  0.0%  0.0%  0.0%  0.0%  0.0%    skip:99.9%\n",
      "[libx264 @ 0x55abd6eff440] mb B  I16..4:  0.0%  0.0%  0.0%  B16..8:  0.1%  0.0%  0.0%  direct: 0.0%  skip:99.9%  L0:47.9% L1:52.1% BI: 0.0%\n",
      "[libx264 @ 0x55abd6eff440] 8x8 transform intra:10.3% inter:78.1%\n",
      "[libx264 @ 0x55abd6eff440] coded y,uvDC,uvAC intra: 30.6% 33.3% 31.8% inter: 0.0% 0.0% 0.0%\n",
      "[libx264 @ 0x55abd6eff440] i16 v,h,dc,p: 89%  3%  5%  3%\n",
      "[libx264 @ 0x55abd6eff440] i8 v,h,dc,ddl,ddr,vr,hd,vl,hu: 14% 11%  4% 29%  5%  7%  6% 15% 10%\n",
      "[libx264 @ 0x55abd6eff440] i4 v,h,dc,ddl,ddr,vr,hd,vl,hu: 21% 24% 10% 10%  7%  7%  7%  8%  6%\n",
      "[libx264 @ 0x55abd6eff440] i8c dc,h,v,p: 75% 10%  8%  7%\n",
      "[libx264 @ 0x55abd6eff440] Weighted P-Frames: Y:0.0% UV:0.0%\n",
      "[libx264 @ 0x55abd6eff440] ref P L0: 88.5%  0.8%  9.5%  1.2%\n",
      "[libx264 @ 0x55abd6eff440] ref B L0: 21.8% 78.0%  0.3%\n",
      "[libx264 @ 0x55abd6eff440] ref B L1: 99.5%  0.5%\n",
      "[libx264 @ 0x55abd6eff440] kb/s:39.43\n",
      "[aac @ 0x55abd6f004c0] Qavg: 65533.570\n",
      "ffmpeg version 4.2.7-0ubuntu0.1 Copyright (c) 2000-2022 the FFmpeg developers\n",
      "  built with gcc 9 (Ubuntu 9.4.0-1ubuntu1~20.04.1)\n",
      "  configuration: --prefix=/usr --extra-version=0ubuntu0.1 --toolchain=hardened --libdir=/usr/lib/x86_64-linux-gnu --incdir=/usr/include/x86_64-linux-gnu --arch=amd64 --enable-gpl --disable-stripping --enable-avresample --disable-filter=resample --enable-avisynth --enable-gnutls --enable-ladspa --enable-libaom --enable-libass --enable-libbluray --enable-libbs2b --enable-libcaca --enable-libcdio --enable-libcodec2 --enable-libflite --enable-libfontconfig --enable-libfreetype --enable-libfribidi --enable-libgme --enable-libgsm --enable-libjack --enable-libmp3lame --enable-libmysofa --enable-libopenjpeg --enable-libopenmpt --enable-libopus --enable-libpulse --enable-librsvg --enable-librubberband --enable-libshine --enable-libsnappy --enable-libsoxr --enable-libspeex --enable-libssh --enable-libtheora --enable-libtwolame --enable-libvidstab --enable-libvorbis --enable-libvpx --enable-libwavpack --enable-libwebp --enable-libx265 --enable-libxml2 --enable-libxvid --enable-libzmq --enable-libzvbi --enable-lv2 --enable-omx --enable-openal --enable-opencl --enable-opengl --enable-sdl2 --enable-libdc1394 --enable-libdrm --enable-libiec61883 --enable-nvenc --enable-chromaprint --enable-frei0r --enable-libx264 --enable-shared\n",
      "  libavutil      56. 31.100 / 56. 31.100\n",
      "  libavcodec     58. 54.100 / 58. 54.100\n",
      "  libavformat    58. 29.100 / 58. 29.100\n",
      "  libavdevice    58.  8.100 / 58.  8.100\n",
      "  libavfilter     7. 57.100 /  7. 57.100\n",
      "  libavresample   4.  0.  0 /  4.  0.  0\n",
      "  libswscale      5.  5.100 /  5.  5.100\n",
      "  libswresample   3.  5.100 /  3.  5.100\n",
      "  libpostproc    55.  5.100 / 55.  5.100\n",
      "Input #0, png_pipe, from './logoCombined2.png':\n",
      "  Duration: N/A, bitrate: N/A\n",
      "    Stream #0:0: Video: png, rgb24(pc), 960x540, 25 fps, 25 tbr, 25 tbn, 25 tbc\n",
      "Guessed Channel Layout for Input Stream #1.0 : mono\n",
      "Input #1, wav, from '/home/ansary/Shabab/book_readers/translated_bangla_seerah/073_-_Battle_of_Mutah_Part_1.wav':\n",
      "  Duration: 00:43:09.39, bitrate: 352 kb/s\n",
      "    Stream #1:0: Audio: pcm_s16le ([1][0][0][0] / 0x0001), 22050 Hz, mono, s16, 352 kb/s\n",
      "Stream mapping:\n",
      "  Stream #0:0 -> #0:0 (png (native) -> h264 (libx264))\n",
      "  Stream #1:0 -> #0:1 (pcm_s16le (native) -> aac (native))\n",
      "Press [q] to stop, [?] for help\n",
      "[libx264 @ 0x5586e84ac440] using cpu capabilities: MMX2 SSE2Fast SSSE3 SSE4.2 AVX FMA3 BMI2 AVX2 AVX512\n",
      "[libx264 @ 0x5586e84ac440] profile High, level 3.1\n",
      "[libx264 @ 0x5586e84ac440] 264 - core 155 r2917 0a84d98 - H.264/MPEG-4 AVC codec - Copyleft 2003-2018 - http://www.videolan.org/x264.html - options: cabac=1 ref=3 deblock=1:-3:-3 analyse=0x3:0x113 me=hex subme=7 psy=1 psy_rd=2.00:0.70 mixed_ref=1 me_range=16 chroma_me=1 trellis=1 8x8dct=1 cqm=0 deadzone=21,11 fast_pskip=1 chroma_qp_offset=-4 threads=17 lookahead_threads=2 sliced_threads=0 nr=0 decimate=1 interlaced=0 bluray_compat=0 constrained_intra=0 bframes=3 b_pyramid=2 b_adapt=1 b_bias=0 direct=1 weightb=1 open_gop=0 weightp=2 keyint=250 keyint_min=25 scenecut=40 intra_refresh=0 rc_lookahead=40 rc=crf mbtree=1 crf=23.0 qcomp=0.60 qpmin=0 qpmax=69 qpstep=4 ip_ratio=1.40 aq=1:1.20\n",
      "[aac @ 0x5586e84ad4c0] Too many bits 8916.462585 > 6144 per frame requested, clamping to max\n",
      "Output #0, mp4, to './videobook_translated_bangla_seerah/073_-_Battle_of_Mutah_Part_1.mp4':\n",
      "  Metadata:\n",
      "    encoder         : Lavf58.29.100\n",
      "    Stream #0:0: Video: h264 (libx264) (avc1 / 0x31637661), yuv420p(progressive), 960x540, q=-1--1, 25 fps, 12800 tbn, 25 tbc\n",
      "    Metadata:\n",
      "      encoder         : Lavc58.54.100 libx264\n",
      "    Side data:\n",
      "      cpb: bitrate max/min/avg: 0/0/0 buffer size: 0 vbv_delay: -1\n",
      "    Stream #0:1: Audio: aac (LC) (mp4a / 0x6134706D), 22050 Hz, mono, fltp, 132 kb/s\n",
      "    Metadata:\n",
      "      encoder         : Lavc58.54.100 aac\n"
     ]
    },
    {
     "name": "stdout",
     "output_type": "stream",
     "text": [
      "working on  /home/ansary/Shabab/book_readers/translated_bangla_seerah/073_-_Battle_of_Mutah_Part_1.wav\n"
     ]
    },
    {
     "name": "stderr",
     "output_type": "stream",
     "text": [
      "frame=29165 fps=238 q=28.0 size=   20736kB time=00:19:24.15 bitrate= 145.9kbits/s speed=9.51x    \r"
     ]
    }
   ],
   "source": [
    "%%time\n",
    "# a big thanks to https://superuser.com/questions/1041816/combine-one-image-one-audio-file-to-make-one-video-using-ffmpeg\n",
    "path = \"videobook_translated_bangla_seerah\"\n",
    "isExist = os.path.exists(path)\n",
    "if not isExist:\n",
    "    os.makedirs(path)\n",
    "    \n",
    "retry = [9,20,34,44,51,55,69,73,74,84,86,89]\n",
    "\n",
    "\n",
    "for i in range(len(files)):\n",
    "    if(i+1 not in retry):\n",
    "        continue\n",
    "    \n",
    "    fpath = folder_path+'/'+files[i] \n",
    "    \n",
    "    head, output = os.path.split(files[i])\n",
    "    \n",
    "    fname = output.split(\".\")[0]\n",
    "    fname = fname.replace('\\'','')\n",
    "    \n",
    "    fpath_new = re.sub(r'[\\\\*?:()&\"<>|]',\"_\",fpath)\n",
    "    os.rename(fpath, fpath_new)\n",
    "    fpath_new = fpath_new.replace('\\'','')\n",
    "    print(\"working on \",fpath_new)\n",
    "    fname = re.sub(r'[\\\\*?:()&\"<>|]',\"_\",fname)\n",
    "    out_fname = f'./{path}/{fname}.mp4'\n",
    "    cmd = f'ffmpeg -loop 1 -i ./logoCombined2.png -i {fpath_new} -c:v libx264 -tune stillimage -c:a aac -b:a 192k -pix_fmt yuv420p -shortest {out_fname}'\n",
    "    os.system(cmd)\n"
   ]
  },
  {
   "cell_type": "code",
   "execution_count": null,
   "id": "a53fcdfb",
   "metadata": {},
   "outputs": [],
   "source": [
    "len(files)"
   ]
  },
  {
   "cell_type": "code",
   "execution_count": null,
   "id": "7ee1b99e",
   "metadata": {},
   "outputs": [],
   "source": [
    "#files"
   ]
  },
  {
   "cell_type": "code",
   "execution_count": null,
   "id": "08fc83d6",
   "metadata": {},
   "outputs": [],
   "source": []
  }
 ],
 "metadata": {
  "kernelspec": {
   "display_name": "Python 3 (ipykernel)",
   "language": "python",
   "name": "python3"
  },
  "language_info": {
   "codemirror_mode": {
    "name": "ipython",
    "version": 3
   },
   "file_extension": ".py",
   "mimetype": "text/x-python",
   "name": "python",
   "nbconvert_exporter": "python",
   "pygments_lexer": "ipython3",
   "version": "3.8.13"
  }
 },
 "nbformat": 4,
 "nbformat_minor": 5
}
